<svg width="200" height="200" viewBox="0 0 200 200" fill="none" xmlns="http://www.w3.org/2000/svg">
<circle cx="110" cy="90" r="50" fill="#FFDA40"/>
<path d="M134.436 136.257C125.47 144.774 113.347 150 100 150C72.379 150 50 127.621 50 100C50 72.379 72.379 50 100 50C127.621 50 150 72.379 150 100C150 104.982 149.272 109.793 147.917 114.333M142.645 126.123C142.142 126.943 141.616 127.746 141.068 128.534M111.512 120.585L93.7298 107.661C93.1048 107.198 92.7419 106.472 92.7419 105.706V71.7742C92.7419 70.4435 93.8306 69.3548 95.1613 69.3548H104.839C106.169 69.3548 107.258 70.4435 107.258 71.7742V99.5363L120.06 108.851C121.149 109.637 121.371 111.149 120.585 112.238L114.899 120.06C114.113 121.129 112.601 121.371 111.512 120.585Z" stroke="#444444" stroke-width="5" stroke-linecap="round"/>
</svg>
