<svg width="200" height="200" viewBox="0 0 200 200" fill="none" xmlns="http://www.w3.org/2000/svg">
<path d="M60 140C60 112.386 82.3858 90 110 90V90C137.614 90 160 112.386 160 140V140C160 140 123.75 140 110 140C96.25 140 60 140 60 140V140Z" fill="#FFDA40"/>
<path d="M125 75C125 88.8071 113.807 100 100 100C86.1929 100 75 88.8071 75 75C75 61.1929 86.1929 50 100 50C113.807 50 125 61.1929 125 75Z" stroke="#444444" stroke-width="5"/>
<path d="M127.5 150H121.25M137.5 150H150V150C150 122.386 127.614 100 100 100V100C72.3858 100 50 122.386 50 150V150H100H112.5H115.625H117.5" stroke="#444444" stroke-width="5"/>
</svg>
