<svg width="766" height="557" viewBox="0 0 766 557" fill="none" xmlns="http://www.w3.org/2000/svg">
<path d="M372.883 149.008L315.08 168.94L315.08 136.407C315.08 102.684 342.419 75.345 376.143 75.345C409.866 75.345 437.205 102.684 437.205 136.407L437.205 168.94L379.402 149.008L376.143 147.883L372.883 149.008Z" stroke="#FFDA40" stroke-width="20"/>
<mask id="path-2-inside-1" fill="white">
<path fill-rule="evenodd" clip-rule="evenodd" d="M334.624 312L376.145 182.966L417.666 312H334.624ZM327.549 333.986L320.123 357.062H360.54L412.476 379.586H312.876L305.015 404.014H447.274L424.74 333.986H327.549ZM454.349 426H297.94L278.944 485.034C278.944 485.034 332.864 538.278 376.145 538.278C419.426 538.278 473.345 485.034 473.345 485.034L454.349 426Z"/>
</mask>
<path fill-rule="evenodd" clip-rule="evenodd" d="M334.624 312L376.145 182.966L417.666 312H334.624ZM327.549 333.986L320.123 357.062H360.54L412.476 379.586H312.876L305.015 404.014H447.274L424.74 333.986H327.549ZM454.349 426H297.94L278.944 485.034C278.944 485.034 332.864 538.278 376.145 538.278C419.426 538.278 473.345 485.034 473.345 485.034L454.349 426Z" fill="#FFDA40"/>
<path d="M376.145 182.966L390.424 178.371L376.145 133.996L361.866 178.371L376.145 182.966ZM334.624 312L320.345 307.405L314.04 327H334.624V312ZM417.666 312V327H438.25L431.945 307.405L417.666 312ZM327.549 333.986V318.986H316.618L313.27 329.391L327.549 333.986ZM320.123 357.062L305.844 352.468L299.539 372.062H320.123V357.062ZM360.54 357.062L366.508 343.301L363.653 342.062H360.54V357.062ZM412.476 379.586V394.586L418.444 365.824L412.476 379.586ZM312.876 379.586V364.586H301.945L298.597 374.991L312.876 379.586ZM305.015 404.014L290.736 399.42L284.431 419.014H305.015V404.014ZM447.274 404.014V419.014H467.859L461.553 399.42L447.274 404.014ZM424.74 333.986L439.019 329.391L435.671 318.986H424.74V333.986ZM297.94 426V411H287.01L283.662 421.405L297.94 426ZM454.349 426L468.628 421.405L465.28 411H454.349V426ZM278.944 485.034L264.665 480.439L261.839 489.224L268.405 495.707L278.944 485.034ZM473.345 485.034L483.885 495.707L490.451 489.224L487.624 480.439L473.345 485.034ZM361.866 178.371L320.345 307.405L348.903 316.595L390.424 187.56L361.866 178.371ZM431.945 307.405L390.424 178.371L361.866 187.56L403.387 316.595L431.945 307.405ZM334.624 327H417.666V297H334.624V327ZM313.27 329.391L305.844 352.468L334.402 361.657L341.828 338.58L313.27 329.391ZM320.123 372.062H360.54V342.062H320.123V372.062ZM354.572 370.824L406.508 393.347L418.444 365.824L366.508 343.301L354.572 370.824ZM412.476 364.586H312.876V394.586H412.476V364.586ZM298.597 374.991L290.736 399.42L319.294 408.609L327.155 384.18L298.597 374.991ZM447.274 389.014H305.015V419.014H447.274V389.014ZM461.553 399.42L439.019 329.391L410.461 338.58L432.995 408.609L461.553 399.42ZM424.74 318.986H327.549V348.986H424.74V318.986ZM297.94 441H454.349V411H297.94V441ZM283.662 421.405L264.665 480.439L293.223 489.629L312.219 430.595L283.662 421.405ZM278.944 485.034C268.405 495.707 268.407 495.71 268.41 495.712C268.411 495.713 268.413 495.716 268.416 495.718C268.42 495.722 268.425 495.728 268.431 495.734C268.444 495.746 268.459 495.761 268.478 495.779C268.516 495.816 268.566 495.866 268.63 495.928C268.757 496.051 268.935 496.224 269.163 496.443C269.618 496.881 270.272 497.504 271.107 498.284C272.778 499.845 275.183 502.042 278.194 504.665C284.199 509.895 292.702 516.891 302.674 523.918C321.784 537.384 349.45 553.278 376.145 553.278V523.278C359.559 523.278 338.624 512.55 319.954 499.394C311.036 493.11 303.354 486.795 297.897 482.042C295.177 479.673 293.031 477.711 291.584 476.359C290.861 475.684 290.314 475.163 289.958 474.821C289.78 474.65 289.651 474.524 289.571 474.446C289.531 474.407 289.504 474.38 289.489 474.366C289.482 474.359 289.478 474.355 289.477 474.354C289.476 474.353 289.477 474.354 289.478 474.355C289.479 474.356 289.48 474.357 289.48 474.357C289.482 474.359 289.484 474.361 278.944 485.034ZM376.145 553.278C402.84 553.278 430.506 537.384 449.616 523.918C459.587 516.891 468.09 509.895 474.096 504.665C477.107 502.042 479.511 499.845 481.182 498.284C482.018 497.504 482.671 496.881 483.127 496.443C483.355 496.224 483.533 496.051 483.66 495.928C483.723 495.866 483.774 495.816 483.812 495.779C483.83 495.761 483.846 495.746 483.858 495.734C483.864 495.728 483.869 495.722 483.874 495.718C483.876 495.716 483.879 495.713 483.88 495.712C483.882 495.71 483.885 495.707 473.345 485.034C462.806 474.361 462.808 474.359 462.809 474.357C462.809 474.357 462.811 474.356 462.812 474.355C462.813 474.354 462.813 474.353 462.813 474.354C462.812 474.355 462.808 474.359 462.8 474.366C462.786 474.38 462.758 474.407 462.718 474.446C462.639 474.524 462.509 474.65 462.331 474.821C461.976 475.163 461.429 475.684 460.706 476.359C459.258 477.711 457.112 479.673 454.392 482.042C448.935 486.795 441.253 493.11 432.335 499.394C413.665 512.55 392.731 523.278 376.145 523.278V553.278ZM487.624 480.439L468.628 421.405L440.07 430.595L459.066 489.629L487.624 480.439Z" fill="#FFDA40" mask="url(#path-2-inside-1)"/>
<path d="M77.9224 293.416L333.706 208.155L248.445 463.939C246.067 464.063 243.303 464.182 240.214 464.276C229.021 464.614 213.687 464.603 197.051 463.228C180.358 461.849 162.746 459.126 146.848 454.205C130.828 449.245 117.565 442.364 108.531 433.33C99.4969 424.296 92.6157 411.033 87.6564 395.013C82.7348 379.115 80.0125 361.503 78.6329 344.81C77.2581 328.174 77.2471 312.841 77.5854 301.647C77.6788 298.558 77.7985 295.794 77.9224 293.416Z" stroke="white" stroke-width="30"/>
<path d="M684.908 297.539L416.758 208.155L506.142 476.305C508.718 476.443 511.75 476.577 515.163 476.68C526.843 477.033 542.847 477.022 560.212 475.586C577.635 474.147 596.036 471.304 612.662 466.157C629.409 460.973 643.337 453.762 652.851 444.248C662.365 434.734 669.576 420.806 674.76 404.059C679.907 387.433 682.75 369.032 684.189 351.609C685.625 334.244 685.636 318.24 685.283 306.56C685.18 303.147 685.046 300.115 684.908 297.539Z" stroke="white" stroke-width="30"/>
<rect x="451.118" y="6.09957" width="8.93003" height="62.5102" rx="4.46502" transform="rotate(30 451.118 6.09957)" fill="#FFDA40" stroke="#FFDA40" stroke-width="8.93003"/>
<rect x="294.843" y="10.5642" width="8.93003" height="62.5102" rx="4.46502" transform="rotate(-30 294.843 10.5642)" fill="#FFDA40" stroke="#FFDA40" stroke-width="8.93003"/>
</svg>
