<svg width="93" height="86" viewBox="0 0 93 86" fill="none" xmlns="http://www.w3.org/2000/svg">
<path d="M13 73C13 50.9086 30.9086 33 53 33V33C75.0914 33 93 50.9086 93 73V73C93 73 64 73 53 73C42 73 13 73 13 73V73Z" fill="#FFDA40"/>
<path d="M63 23C63 34.0457 54.0457 43 43 43C31.9543 43 23 34.0457 23 23C23 11.9543 31.9543 3 43 3C54.0457 3 63 11.9543 63 23Z" stroke="#1F9FE0" stroke-width="5"/>
<path d="M65 83H60M73 83H83V83C83 60.9086 65.0914 43 43 43V43C20.9086 43 3 60.9086 3 83V83H43H53H55.5H57" stroke="#1F9FE0" stroke-width="5"/>
</svg>
